Coordinates
version=1
nRows=26
nColumns=24
inDegrees=yes

Units are S.I. units (second, meters, Newtons, ...)
If the header above contains a line with 'inDegrees', this indicates whether rotational values are in degrees (yes) or radians (no).

endheader
time	pelvis_tilt	pelvis_list	pelvis_rotation	pelvis_tx	pelvis_ty	pelvis_tz	hip_flexion_r	hip_adduction_r	hip_rotation_r	knee_angle_r	ankle_angle_r	subtalar_angle_r	mtp_angle_r	hip_flexion_l	hip_adduction_l	hip_rotation_l	knee_angle_l	ankle_angle_l	subtalar_angle_l	mtp_angle_l	lumbar_extension	lumbar_bending	lumbar_rotation
1.5	6.002719169957036	-1.5829705452510285	-8.6309917632164	0.6029135568011637	1.0037140575478023	0.01984207086859964	-20.75883137027067	-5.409869137302583	1.958256082271416	-60.165669965738225	-3.4494579691173364	-2.4793733777843278e-06	-4.750330308609852e-10	17.105445645849493	0.7513635349451322	-5.216789579582995	5.299822270161162	-1.866925350717632	-1.36041241978061e-06	1.362134711670775e-15	-15.676493527251875	-5.821830237857924	3.978339038498449
1.517	5.794773278433805	-5.288768835765122	-8.039800246978606	0.5950425067036341	1.0333672952664925	0.04526290798037746	-29.00833026101595	1.1070360252739535	2.933934295531433	-60.34067786868475	12.108293094881288	-5.213189809195016e-06	8.770081912031133e-10	35.57262507480133	-5.510561749776435	-9.589653558859709	-7.710400510580254	-7.9056098163950885	-3.9540975893956665e-06	2.8420876338116617e-16	-16.861074584626145	-0.18952805806045925	8.047212521377244
1.533	6.366637394977763	-1.9478049457142528	-3.3587981738173465	0.6071540581514149	1.038335458560997	0.0011470411787968884	6.637628810471043	-6.054979633814268	-6.585767145416851	-83.66517770639214	-2.548341381540933	-7.977198810194307e-06	-1.3280904562753635e-10	8.147439533011152	1.3668139315318801	-2.0489588271759724	-19.07417331752179	-2.7198076106868125	2.2131918357415167e-06	-3.0710963111942483e-16	-15.144165633037519	-2.3910626772908965	-2.3025121838693354
1.55	6.135517526357101	-1.0419627271201717	-2.6747917264976793	0.5991817363332501	1.0436167375922243	0.025749144481409227	-4.159229160842793	-1.8648767343174373	-1.9891292927491744	-55.219844710281436	6.458461897336609	-2.9967691223269287e-06	-4.966245997278084e-10	18.636324360626983	-0.9011957978532741	-4.938535713716741	-33.83268782444381	-1.9689709970887384	-2.126369681827904e-06	-1.1096558017076071e-15	-16.58409268222486	-1.9098389879724504	0.40102394541996844
1.567	6.867584461727452	-1.403540782380775	-2.7044924970700563	0.6021556103428983	1.0683258885289832	0.002624238113814313	7.37275556743374	-5.384368263662938	-8.448675757463059	-93.86075396093636	-0.43708505401565456	-5.77380821399438e-06	1.2877360287747992e-10	16.68820416860491	0.725364748391272	-6.502031540712092	-27.378969052438112	-0.22268326985716147	-7.0598700097382255e-06	-2.2003131086090677e-15	-16.466384126943318	-3.8947286213649486	-1.6453741147848562
1.583	5.895731495415712	2.8046542461665815	4.30053661102483	0.5883794196281641	1.033997709893238	-0.07209101174003651	62.3022631776309	-13.114100403745475	-16.383817798782985	-71.7517212901171	-9.103330920707533	-1.1821422772165476e-05	8.26509397603006e-10	-49.74770391364348	11.847998019118785	11.964508066371593	6.868301926608611	19.44587221401594	4.7947005831501105e-06	4.7840487968553533e-17	-14.357480117972766	-4.964223898263278	-19.531454668762315
1.6	5.984039526632034	-2.8871424085622373	-2.8082550329486256	0.5869469207713964	1.0446266526823607	0.018975877893874792	-3.3824443259905337	-0.38555292423323184	-2.4324823929122097	-52.367430830348084	5.856678050995981	-3.288235823409929e-06	-8.862177651783329e-10	13.408818276129916	-1.659913411650439	-5.94767891379119	-2.6285126993083985	1.420134652983894	-4.258104733019371e-06	6.046582812597535e-16	-17.095602327185812	-0.4581568257198312	0.085108357067881
1.617	6.354616073473092	-2.1826724555891133	-0.27492420459274053	0.5951051631821641	1.0445647765837716	-0.03052932152849341	27.493569231332227	-6.51094628762281	-7.277583026664326	-89.93592192434957	1.0595140822542504	-6.003617280913307e-06	-9.94727491646634e-10	-12.308775037868397	3.6677398232580325	4.376285551282772	-1.5912125502298293	6.047368416707171	1.34614219485077e-06	-4.799348511899933e-16	-15.520176167639312	-2.317113233171094	-8.96540414587162
1.633	4.79286394973864	-1.9816771710878314	-0.04326488798620734	0.5850187226030191	1.0204141651014949	-0.011470105775917191	19.466691091803575	-2.667673599214811	-6.972633006801327	-42.80009247280968	-2.3848169390737515	-1.0774924043429419e-06	1.0470612144293838e-11	-13.88913181874524	1.8649289836142608	3.7678505305706373	6.335691954653649	8.6831105351486	2.7335473494012326e-06	-1.1945787781203113e-15	-15.053092137913136	-0.5981071983631954	-6.484859153440723
1.65	6.081627080343416	0.23609073293849692	2.8086027993974447	0.5947917053465728	1.0484429299245646	-0.0393025606166699	42.71701943529709	-8.343687446675002	-14.455054847344694	-74.67639799002438	-5.073016838763801	-7.555262396274299e-06	-1.0046461964840408e-09	-23.2687820164734	6.211957059062204	5.936172756511013	-14.420790724804933	9.49936648719764	3.463017947162772e-06	1.834480063964788e-15	-14.854280954344517	-2.480136113485515	-12.623258041167535
1.667	5.182911477268688	-3.617290209136664	-5.749104513845775	0.5670559685809581	1.0503279241966241	0.0077629366192874544	-5.094294531168554	-1.8134366949251852	-8.68132240156224	-38.28442580618651	7.068199759502244	-2.408271956162031e-06	2.3532503992632244e-10	17.669437270366206	-1.0083039957596975	-8.041875411228597	7.610224752794195	2.00740401762695	-8.317897687379047e-06	-1.7005208104639846e-15	-17.85420324409435	-3.0459852231537776	3.5825705438155406
1.683	6.102460467420296	1.3427528236470465	2.35126074815376	0.5859384361756119	1.0594372743653917	-0.027269022431146008	37.91060198054662	-8.198498697272889	-16.997136052155717	-56.98697011395286	-4.685009045420283	-9.389904620426972e-06	-5.784431083174874e-10	-15.715159034699123	5.773252895900923	0.8509061152668135	-19.616053492151924	10.31084121178769	1.0451356171794957e-07	4.4280144056710185e-16	-16.095302738408353	-3.0991597375639763	-9.599794729210293
1.7	6.002536229274318	-0.7069866005208636	-0.6538384972582575	0.569829987157074	1.0752370769445163	-0.04796661774939583	39.50542924542707	-10.486921576211067	-20.73612062329272	-78.78770910595608	-1.8683386050718762	-1.4479223783708074e-05	-1.1117015795391798e-10	-13.143064017501638	6.913387319524734	-2.365390357371055	11.603445412483715	10.731684306543059	-3.753421492502017e-06	7.987022069281994e-17	-16.96095122135729	-4.64069170970966	-8.620399141451452
1.717	4.324073028369427	3.2376940921403956	5.2886500306067665	0.5669844244146668	1.032341801971934	-0.021643202607392942	42.101852032640615	-4.623881196695975	-15.50655107545858	9.656495651679204	1.9497718998449953	-7.002458356963306e-06	-9.582477606992507e-10	-32.936977009931994	6.449091280712933	6.075775539617881	-14.415546444752863	18.913700865337784	2.035492121620976e-06	-9.018242070071905e-16	-16.013483794126515	-0.9901684999454181	-12.328348200898626
1.733	4.1371343419514215	-3.291939461020023	-3.057337229663085	0.5731347964777116	1.0373891034829903	0.02401843037007487	-4.75593993266186	2.3284485984736065	-6.684162205193222	-11.336520883518126	12.587638338162352	-1.1083599725089278e-06	-7.98909734948332e-10	14.434429436305269	-2.731799778692609	-6.766678846844224	-11.709624627692065	-1.2135195579682865	-3.43257672845993e-06	1.775438645518808e-15	-16.525938694445912	0.5958617664062547	2.271869269699442
1.75	3.8698961149711506	-0.3337338077043548	-0.35994732166435606	0.5655809477037482	1.0232930327840974	0.0066347869847851685	9.806935986025495	0.1609089511804509	-6.4849595213438365	10.080349912305337	10.183674101918198	-7.702854253864165e-09	6.819516170983745e-10	-6.338612131914802	1.0690030857756891	-0.2875111386973528	-4.5089733440339295	8.764295321065742	-2.952500801044865e-06	-1.9935272522872893e-17	-16.413688822238	-1.134895160463449	-3.525973943069328
1.767	5.9156405808339265	-3.2154003412376357	-5.017031595738538	0.6021079305040052	1.029692814082821	0.01236978149891644	-5.419657854547697	-2.988221300289335	-3.2674502742383362	-72.16797446944679	-1.0305829683192962	-1.7790591056068074e-06	-1.550704843112827e-10	15.299055410005941	-0.6122409129218473	-2.826878524431535	-11.19292735401512	-3.153222965439511	3.064636495996348e-07	1.1179698117076286e-15	-15.545230993247403	-2.262965560936122	0.8899010166180661
1.783	4.6175777867612	1.2134299378707794	1.7984523761471327	0.5746619614196843	1.019784512226892	-0.015115562402445831	24.608731110301896	-3.3032605022253754	-8.090005704084753	-4.932602366503416	4.272649700752763	-1.8704725236785654e-06	2.76346766271615e-10	-22.515457056339244	4.7153310569618725	3.420583173321835	-0.8182589264987815	11.510212049711933	3.584284408418292e-07	-9.317166022972824e-16	-15.703979626170332	-2.0587184208783587	-9.284213159018257
1.8	4.812981351805071	0.847439000434199	-1.0170153414901724	0.5854018095313535	1.019215711824711	0.009715934233364726	5.243575055103461	-2.282418908725603	-1.4083298917404394	-13.96116778463436	5.19188097396575	2.4608729192259657e-07	-1.066354971845085e-10	-3.2074304324189793	2.0027984587729537	-0.5183759547423952	-12.862662412004674	6.292516722687333	-2.2169815930333288e-06	8.626228606892127e-16	-15.67387395260478	-2.9278247170243765	-3.8397663371757593
1.817	4.786818120436519	1.370542120463241	-1.71819980435347	0.5734789876349178	1.0088398142039523	-0.028124806874260187	18.136588603577614	-6.6257129757092335	-4.120213889554357	-20.154266920365362	1.804117691700194	1.3091806791898353e-06	8.250781972602079e-10	-21.45780531773472	6.865070491608622	4.4535372245483265	19.76539810897844	13.344621709732467	-1.7699335393968913e-06	-3.4001801859315657e-16	-15.752858584688521	-6.616919385645055	-8.003130543018337
1.833	4.370331758944534	3.4619002099752008	-0.45118850833282353	0.5817257513953494	1.0051087767231557	0.012671146943666861	4.826183280855178	-3.7244151729683974	-2.0211652455134086	12.536600040472496	1.5172808328842815	2.4601576346312835e-06	3.599173655512023e-10	-6.719300561869591	3.7539032488247432	1.4705979795079895	-21.770592292594213	9.866391505838823	-1.588526922568999e-06	5.589133829176185e-16	-15.812194858256406	-4.6478061378878	-4.067470612768248
1.85	4.372841892562401	1.4654014699956752	2.90256675383834	0.5699417134634925	1.0034440297618414	-0.00823886336740601	22.167302450029705	-1.9002784703583062	-2.526209517881649	14.12145970998896	10.015548778241996	-5.43173096980832e-07	-3.711005076021245e-11	-26.75858379601285	3.7645575908753983	7.174731141480258	-0.258140973994049	14.454788658870848	2.938086063342956e-06	-1.7127494975275023e-16	-16.103681345187628	-0.903094215741759	-9.990244804769638
1.867	3.577369392399141	1.9261238606266589	1.4384741300615225	0.5819526528162078	0.9825361032421909	0.013901927801721715	8.357474897609842	0.30957318388238697	1.189466995661327	23.708841834305744	4.920013622479514	7.114680282304546e-06	9.395111820773999e-10	-17.76007732842975	1.6077444934132914	6.545064541233362	-16.56361482065178	11.900736534086906	1.7315799568397463e-06	-5.517609746058091e-16	-14.794287574225846	-1.8315880606422315	-6.874658999659118
1.883	4.405198874146729	1.9144344444425094	0.8851080163765193	0.5740455951943207	1.0069934249220438	0.014439206893003632	8.851044484055492	-1.0514169139005687	-1.4039842224960903	13.46742175424371	6.140973461937293	-1.5938498799945246e-06	2.6293081447781794e-10	-12.306274259708228	1.9577275084727177	1.057467571658326	-7.899264855084051	12.715265020156284	-1.5340837066081233e-06	-5.737477621023074e-16	-16.449177518822317	-1.547872580004747	-5.307716392059282
1.9	4.569808689088327	1.1460522625586145	2.5333046254533764	0.5845577531110018	1.005851641812947	-0.015794101155816115	28.03078962743777	-3.7610243296671664	-4.930542286916422	-22.505145714977836	-0.6006779613109641	-1.9153863332410133e-06	-3.501888357704514e-11	-28.8541872206859	4.0993778750475665	8.040496086610457	-0.9802570319303339	16.435975890745627	1.6719267519642367e-06	-6.468515876591095e-16	-14.769692105663957	-1.7410197199438167	-11.017769990618337
1.917	4.680815824613608	3.466965113252342	5.13436452413299	0.5915037342109722	1.004864632757451	-0.011810771445666248	36.21271242135194	-5.425854276633043	-7.135786321188916	-20.613313351371065	-9.153708278728093	-5.524001732901488e-06	1.3378618445548859e-09	-35.45758284722942	5.084972208353953	7.586655978531389	-10.431900143808113	19.402520455732322	2.771429755957256e-06	3.286928166926941e-16	-14.266573147578798	-1.1778647892610672	-13.51932947019547
